<?xml version="1.0" encoding="UTF-8" standalone="no" ?>
<!DOCTYPE svg PUBLIC "-//W3C//DTD SVG 1.1//EN" "http://www.w3.org/Graphics/SVG/1.1/DTD/svg11.dtd">
<svg xmlns="http://www.w3.org/2000/svg" xmlns:xlink="http://www.w3.org/1999/xlink" version="1.1" width="1080" height="1080" viewBox="0 0 1080 1080" xml:space="preserve">
<desc>Created with Fabric.js 5.2.4</desc>
<defs>
</defs>
<g transform="matrix(1 0 0 1 540 540)" id="699b531c-1e00-491b-a83f-cb1c292c3831"  >
<rect style="stroke: none; stroke-width: 1; stroke-dasharray: none; stroke-linecap: butt; stroke-dashoffset: 0; stroke-linejoin: miter; stroke-miterlimit: 4; fill: rgb(255,255,255); fill-rule: nonzero; opacity: 1; visibility: hidden;" vector-effect="non-scaling-stroke"  x="-540" y="-540" rx="0" ry="0" width="1080" height="1080" />
</g>
<g transform="matrix(1 0 0 1 540 540)" id="c56bca56-9b77-4624-93d5-7930b3ea1238"  >
</g>
<g transform="matrix(1 0 0 1 540 540)"  >
<g style="" vector-effect="non-scaling-stroke"   >
		<g transform="matrix(1 0 0 1 -74.8 3.11)"  >
<path style="stroke: none; stroke-width: 1; stroke-dasharray: none; stroke-linecap: butt; stroke-dashoffset: 0; stroke-linejoin: miter; stroke-miterlimit: 4; fill: rgb(255,255,255); fill-rule: nonzero; opacity: 1;" vector-effect="non-scaling-stroke"  transform=" translate(-11.7, -19.61)" d="M 4.19039 32.6066 L 6.59219 25.7282 L 16.8126 25.7282 L 19.2017 32.6066 L 23.3921 32.6066 L 13.9765 6.61607 L 9.41559 6.61607 L 0 32.6066 L 4.19039 32.6066 Z M 7.74199 22.4287 L 11.6002 11.337 L 11.8046 11.337 L 15.6628 22.4287 L 7.74199 22.4287 Z" stroke-linecap="round" />
</g>
		<g transform="matrix(1 0 0 1 -54.39 6.21)"  >
<path style="stroke: none; stroke-width: 1; stroke-dasharray: none; stroke-linecap: butt; stroke-dashoffset: 0; stroke-linejoin: miter; stroke-miterlimit: 4; fill: rgb(255,255,255); fill-rule: nonzero; opacity: 1;" vector-effect="non-scaling-stroke"  transform=" translate(-32.11, -22.71)" d="M 26.8638 32.6066 L 30.6837 32.6066 L 30.6837 20.7027 C 30.6837 18.1519 32.6639 16.3118 35.3723 16.3118 C 36.1644 16.3118 37.0587 16.4514 37.3653 16.5402 L 37.3653 12.9107 C 36.9821 12.8599 36.2283 12.8218 35.7428 12.8218 C 33.4432 12.8218 31.4758 14.1163 30.7604 16.2102 L 30.556 16.2102 L 30.556 13.1137 L 26.8638 13.1137 L 26.8638 32.6066 Z" stroke-linecap="round" />
</g>
		<g transform="matrix(1 0 0 1 -38.27 6.43)"  >
<path style="stroke: none; stroke-width: 1; stroke-dasharray: none; stroke-linecap: butt; stroke-dashoffset: 0; stroke-linejoin: miter; stroke-miterlimit: 4; fill: rgb(255,255,255); fill-rule: nonzero; opacity: 1;" vector-effect="non-scaling-stroke"  transform=" translate(-48.23, -22.93)" d="M 48.2342 33 C 53.766 33 57.3815 28.9771 57.3815 22.949 C 57.3815 16.8828 53.766 12.8599 48.2342 12.8599 C 42.7023 12.8599 39.0868 16.8828 39.0868 22.949 C 39.0868 28.9771 42.7023 33 48.2342 33 Z M 48.2469 29.8146 C 44.6314 29.8146 42.9451 26.68 42.9451 22.9363 C 42.9451 19.2052 44.6314 16.0326 48.2469 16.0326 C 51.8369 16.0326 53.5232 19.2052 53.5232 22.9363 C 53.5232 26.68 51.8369 29.8146 48.2469 29.8146 Z" stroke-linecap="round" />
</g>
		<g transform="matrix(1 0 0 1 -16.72 6.49)"  >
<path style="stroke: none; stroke-width: 1; stroke-dasharray: none; stroke-linecap: butt; stroke-dashoffset: 0; stroke-linejoin: miter; stroke-miterlimit: 4; fill: rgb(255,255,255); fill-rule: nonzero; opacity: 1;" vector-effect="non-scaling-stroke"  transform=" translate(-69.78, -22.99)" d="M 74.0759 24.5226 C 74.0887 27.8349 71.6103 29.4085 69.464 29.4085 C 67.1005 29.4085 65.4652 27.708 65.4652 25.0556 L 65.4652 13.1137 L 61.6453 13.1137 L 61.6453 25.5125 C 61.6453 30.3476 64.3154 32.8604 68.0842 32.8604 C 71.0353 32.8604 73.0411 31.3121 73.9482 29.2309 L 74.1526 29.2309 L 74.1526 32.6066 L 77.9086 32.6066 L 77.9086 13.1137 L 74.0759 13.1137 L 74.0759 24.5226 Z" stroke-linecap="round" />
</g>
		<g transform="matrix(1 0 0 1 4.73 6.23)"  >
<path style="stroke: none; stroke-width: 1; stroke-dasharray: none; stroke-linecap: butt; stroke-dashoffset: 0; stroke-linejoin: miter; stroke-miterlimit: 4; fill: rgb(255,255,255); fill-rule: nonzero; opacity: 1;" vector-effect="non-scaling-stroke"  transform=" translate(-91.23, -22.73)" d="M 86.8611 21.0327 C 86.8611 17.9235 88.7774 16.1468 91.4347 16.1468 C 94.0282 16.1468 95.5996 17.8346 95.5996 20.6647 L 95.5996 32.6066 L 99.4195 32.6066 L 99.4195 20.2078 C 99.4195 15.3853 96.7494 12.8599 92.7378 12.8599 C 89.7867 12.8599 87.8576 14.2178 86.9505 16.2864 L 86.7078 16.2864 L 86.7078 13.1137 L 83.0412 13.1137 L 83.0412 32.6066 L 86.8611 32.6066 L 86.8611 21.0327 Z" stroke-linecap="round" />
</g>
		<g transform="matrix(1 0 0 1 26.15 3.3)"  >
<path style="stroke: none; stroke-width: 1; stroke-dasharray: none; stroke-linecap: butt; stroke-dashoffset: 0; stroke-linejoin: miter; stroke-miterlimit: 4; fill: rgb(255,255,255); fill-rule: nonzero; opacity: 1;" vector-effect="non-scaling-stroke"  transform=" translate(-112.65, -19.8)" d="M 111.888 32.9873 C 115.466 32.9873 116.871 30.8172 117.561 29.5735 L 117.88 29.5735 L 117.88 32.6066 L 121.611 32.6066 L 121.611 6.61607 L 117.791 6.61607 L 117.791 16.2737 L 117.561 16.2737 C 116.871 15.0681 115.568 12.8599 111.914 12.8599 C 107.174 12.8599 103.687 16.5783 103.687 22.8982 C 103.687 29.2055 107.123 32.9873 111.888 32.9873 Z M 112.732 29.7512 C 109.321 29.7512 107.545 26.7689 107.545 22.8601 C 107.545 18.9895 109.282 16.0833 112.732 16.0833 C 116.066 16.0833 117.855 18.7864 117.855 22.8601 C 117.855 26.9592 116.028 29.7512 112.732 29.7512 Z" stroke-linecap="round" />
</g>
		<g transform="matrix(1 0 0 1 43.37 -12.05)"  >
<path style="stroke: none; stroke-width: 1; stroke-dasharray: none; stroke-linecap: butt; stroke-dashoffset: 0; stroke-linejoin: miter; stroke-miterlimit: 4; fill: rgb(255,255,255); fill-rule: nonzero; opacity: 1;" vector-effect="non-scaling-stroke"  transform=" translate(-129.87, -4.45)" d="M 126.6 1.0491 L 129.343 1.0491 L 129.343 8.78195 L 130.399 8.78195 L 130.399 1.0491 L 133.141 1.0491 L 133.141 0.118446 L 126.6 0.118446 L 126.6 1.0491 Z" stroke-linecap="round" />
</g>
		<g transform="matrix(1 0 0 1 50.76 -12.05)"  >
<path style="stroke: none; stroke-width: 1; stroke-dasharray: none; stroke-linecap: butt; stroke-dashoffset: 0; stroke-linejoin: miter; stroke-miterlimit: 4; fill: rgb(255,255,255); fill-rule: nonzero; opacity: 1;" vector-effect="non-scaling-stroke"  transform=" translate(-137.26, -4.45)" d="M 135.64 4.87322 C 135.64 3.73952 136.368 3.09653 137.36 3.09653 C 138.306 3.09653 138.876 3.68876 138.876 4.72093 L 138.876 8.78195 L 139.881 8.78195 L 139.881 4.65325 C 139.881 2.98231 138.987 2.19972 137.65 2.19972 C 136.619 2.19972 136.032 2.62697 135.725 3.29958 L 135.64 3.29958 L 135.64 0.118446 L 134.635 0.118446 L 134.635 8.78195 L 135.64 8.78195 L 135.64 4.87322 Z" stroke-linecap="round" />
</g>
		<g transform="matrix(1 0 0 1 57.79 -10.94)"  >
<path style="stroke: none; stroke-width: 1; stroke-dasharray: none; stroke-linecap: butt; stroke-dashoffset: 0; stroke-linejoin: miter; stroke-miterlimit: 4; fill: rgb(255,255,255); fill-rule: nonzero; opacity: 1;" vector-effect="non-scaling-stroke"  transform=" translate(-144.29, -5.56)" d="M 144.463 8.91732 C 145.791 8.91732 146.762 8.2574 147.069 7.27599 L 146.098 7.00526 C 145.842 7.68209 145.25 8.02051 144.463 8.02051 C 143.283 8.02051 142.47 7.2633 142.423 5.87156 L 147.171 5.87156 L 147.171 5.44853 C 147.171 3.02884 145.723 2.19972 144.36 2.19972 C 142.589 2.19972 141.413 3.58723 141.413 5.5839 C 141.413 7.58057 142.572 8.91732 144.463 8.91732 Z M 142.423 5.00859 C 142.491 3.99756 143.211 3.09653 144.36 3.09653 C 145.451 3.09653 146.149 3.90873 146.149 5.00859 L 142.423 5.00859 Z" stroke-linecap="round" />
</g>
		<g transform="matrix(1 0 0 1 69.1 -11.97)"  >
<path style="stroke: none; stroke-width: 1; stroke-dasharray: none; stroke-linecap: butt; stroke-dashoffset: 0; stroke-linejoin: miter; stroke-miterlimit: 4; fill: rgb(255,255,255); fill-rule: nonzero; opacity: 1;" vector-effect="non-scaling-stroke"  transform=" translate(-155.6, -4.53)" d="M 157.932 0.118446 L 157.932 5.77003 C 157.932 7.0391 157.055 7.95283 155.599 7.95283 C 154.142 7.95283 153.265 7.0391 153.265 5.77003 L 153.265 0.118446 L 152.209 0.118446 L 152.209 5.85463 C 152.209 7.63133 153.546 8.93424 155.599 8.93424 C 157.651 8.93424 158.988 7.63133 158.988 5.85463 L 158.988 0.118446 L 157.932 0.118446 Z" stroke-linecap="round" />
</g>
		<g transform="matrix(1 0 0 1 74.78 -8.41)"  >
<path style="stroke: none; stroke-width: 1; stroke-dasharray: none; stroke-linecap: butt; stroke-dashoffset: 0; stroke-linejoin: miter; stroke-miterlimit: 4; fill: rgb(255,255,255); fill-rule: nonzero; opacity: 1;" vector-effect="non-scaling-stroke"  transform=" translate(-161.28, -8.09)" d="M 161.284 8.84964 C 161.705 8.84964 162.05 8.50699 162.05 8.08819 C 162.05 7.6694 161.705 7.32675 161.284 7.32675 C 160.862 7.32675 160.517 7.6694 160.517 8.08819 C 160.517 8.50699 160.862 8.84964 161.284 8.84964 Z" stroke-linecap="round" />
</g>
		<g transform="matrix(1 0 0 1 80.26 -12.03)"  >
<path style="stroke: none; stroke-width: 1; stroke-dasharray: none; stroke-linecap: butt; stroke-dashoffset: 0; stroke-linejoin: miter; stroke-miterlimit: 4; fill: rgb(255,255,255); fill-rule: nonzero; opacity: 1;" vector-effect="non-scaling-stroke"  transform=" translate(-166.76, -4.47)" d="M 168.76 2.28432 L 169.782 2.28432 C 169.735 0.977182 168.521 0 166.835 0 C 165.165 0 163.854 0.964492 163.854 2.41969 C 163.854 3.58723 164.705 4.28099 166.068 4.67017 L 167.141 4.97475 C 168.061 5.22856 168.879 5.55006 168.879 6.41302 C 168.879 7.3606 167.959 7.98667 166.75 7.98667 C 165.71 7.98667 164.791 7.5298 164.705 6.54839 L 163.615 6.54839 C 163.717 7.96975 164.876 8.93424 166.75 8.93424 C 168.76 8.93424 169.901 7.83438 169.901 6.42994 C 169.901 4.80554 168.351 4.28099 167.448 4.0441 L 166.562 3.8072 C 165.915 3.638 164.876 3.29958 164.876 2.36893 C 164.876 1.5398 165.642 0.93065 166.801 0.93065 C 167.857 0.93065 168.657 1.42982 168.76 2.28432 Z" stroke-linecap="round" />
</g>
		<g transform="matrix(1 0 0 1 85.73 -8.41)"  >
<path style="stroke: none; stroke-width: 1; stroke-dasharray: none; stroke-linecap: butt; stroke-dashoffset: 0; stroke-linejoin: miter; stroke-miterlimit: 4; fill: rgb(255,255,255); fill-rule: nonzero; opacity: 1;" vector-effect="non-scaling-stroke"  transform=" translate(-172.23, -8.09)" d="M 172.233 8.84964 C 172.655 8.84964 173 8.50699 173 8.08819 C 173 7.6694 172.655 7.32675 172.233 7.32675 C 171.812 7.32675 171.467 7.6694 171.467 8.08819 C 171.467 8.50699 171.812 8.84964 172.233 8.84964 Z" stroke-linecap="round" />
</g>
</g>
</g>
<g transform="matrix(0.21 0 0 0.11 614.14 529.09)" id="ddec494b-34ce-4022-a13d-f149440ff483"  >
<path style="stroke: rgb(0,0,0); stroke-width: 0; stroke-dasharray: none; stroke-linecap: butt; stroke-dashoffset: 0; stroke-linejoin: miter; stroke-miterlimit: 4; fill: rgb(206,22,22); fill-rule: nonzero; opacity: 1;" vector-effect="non-scaling-stroke"  transform=" translate(-50, -50)" d="M 16.28 19.945 L 19.957 16.32 C 22.060000000000002 14.166 25.578000000000003 14.166 27.681 16.32 L 50.007000000000005 38.595 L 72.333 16.32 C 74.43599999999999 14.166 77.954 14.166 80.054 16.32 L 83.68 19.945 C 85.834 22.046 85.834 25.566000000000003 83.68 27.668 L 61.405 49.993 L 83.68 72.32 C 85.834 74.422 85.834 77.939 83.68 80.04299999999999 L 80.054 83.72099999999999 C 77.95400000000001 85.82 74.436 85.82 72.333 83.72099999999999 L 50.007 61.393 L 27.681 83.721 C 25.578 85.82000000000001 22.060000000000002 85.82000000000001 19.957 83.721 L 16.28 80.043 C 14.180000000000001 77.93900000000001 14.180000000000001 74.42200000000001 16.28 72.32000000000001 L 38.606 49.99300000000001 L 16.28 27.667 C 14.18 25.566 14.18 22.046 16.28 19.945 z" stroke-linecap="round" />
</g>
<g transform="matrix(1 0 0 0.98 598.97 547.3)" style="" id="5dd91847-49cb-4a67-a094-f66e8579cf63"  >
		<text xml:space="preserve" font-family="Alegreya" font-size="14" font-style="normal" font-weight="700" style="stroke: none; stroke-width: 1; stroke-dasharray: none; stroke-linecap: butt; stroke-dashoffset: 0; stroke-linejoin: miter; stroke-miterlimit: 4; fill: rgb(255,255,255); fill-rule: nonzero; opacity: 1; white-space: pre;" ><tspan x="-18.28" y="4.4" >World</tspan></text>
</g>
</svg>